<svg width="24" height="24" viewBox="0 0 24 24" fill="none" xmlns="http://www.w3.org/2000/svg">
<path d="M7.19998 11.28C6.80234 11.28 6.47998 11.6023 6.47998 12C6.47998 12.3976 6.80234 12.72 7.19998 12.72V11.28ZM12 12.72C12.3976 12.72 12.72 12.3976 12.72 12C12.72 11.6023 12.3976 11.28 12 11.28V12.72ZM12 11.28C11.6023 11.28 11.28 11.6023 11.28 12C11.28 12.3976 11.6023 12.72 12 12.72V11.28ZM16.8 12.72C17.1976 12.72 17.52 12.3976 17.52 12C17.52 11.6023 17.1976 11.28 16.8 11.28V12.72ZM12.72 12C12.72 11.6023 12.3976 11.28 12 11.28C11.6023 11.28 11.28 11.6023 11.28 12H12.72ZM11.28 16.8C11.28 17.1976 11.6023 17.52 12 17.52C12.3976 17.52 12.72 17.1976 12.72 16.8H11.28ZM11.28 12C11.28 12.3976 11.6023 12.72 12 12.72C12.3976 12.72 12.72 12.3976 12.72 12H11.28ZM12.72 7.19998C12.72 6.80234 12.3976 6.47998 12 6.47998C11.6023 6.47998 11.28 6.80234 11.28 7.19998H12.72ZM7.19998 12.72H12V11.28H7.19998V12.72ZM12 12.72H16.8V11.28H12V12.72ZM12 12H11.28V12.0009C11.28 12.001 11.28 12.0021 11.28 12.0021C11.28 12.002 11.28 12.0022 11.28 12.0021C11.28 12.0021 11.28 12.0031 11.28 12.0032C11.28 12.0031 11.28 12.0033 11.28 12.0032C11.28 12.0033 11.28 12.0041 11.28 12.0042C11.28 12.0043 11.28 12.0052 11.28 12.0053C11.28 12.0054 11.28 12.0061 11.28 12.0062C11.28 12.0063 11.28 12.0072 11.28 12.0074C11.28 12.0075 11.28 12.0083 11.28 12.0085C11.28 12.0086 11.28 12.0097 11.28 12.0098C11.28 12.0096 11.28 12.01 11.28 12.0098C11.28 12.01 11.28 12.0105 11.28 12.0107C11.28 12.0105 11.28 12.0109 11.28 12.0107C11.28 12.0109 11.28 12.0116 11.28 12.0117C11.28 12.0115 11.28 12.0119 11.28 12.0117C11.28 12.0119 11.28 12.0126 11.28 12.0127C11.28 12.0126 11.28 12.0129 11.28 12.0127C11.28 12.0129 11.28 12.0137 11.28 12.0139C11.28 12.0137 11.28 12.0141 11.28 12.0139C11.28 12.0141 11.28 12.0149 11.28 12.0151C11.28 12.0148 11.28 12.0152 11.28 12.0151C11.28 12.0152 11.28 12.0161 11.28 12.0163C11.28 12.0161 11.28 12.0165 11.28 12.0163C11.28 12.0165 11.28 12.0174 11.28 12.0176C11.28 12.0174 11.28 12.0178 11.28 12.0176C11.28 12.0178 11.28 12.0188 11.28 12.019C11.28 12.0188 11.28 12.0192 11.28 12.019C11.28 12.0193 11.28 12.0201 11.28 12.0204C11.28 12.0201 11.28 12.0207 11.28 12.0204C11.28 12.0206 11.28 12.0217 11.28 12.022C11.28 12.0217 11.28 12.0222 11.28 12.022C11.28 12.0223 11.28 12.0232 11.28 12.0235C11.28 12.0232 11.28 12.0238 11.28 12.0235C11.28 12.0238 11.28 12.0249 11.28 12.0252C11.28 12.0249 11.28 12.0255 11.28 12.0252C11.28 12.0255 11.28 12.0267 11.28 12.027C11.28 12.0267 11.28 12.0272 11.28 12.027C11.28 12.0272 11.28 12.0284 11.28 12.0288C11.28 12.0285 11.28 12.0291 11.28 12.0288C11.28 12.0292 11.28 12.0303 11.28 12.0306C11.28 12.031 11.28 12.0313 11.28 12.0317C11.28 12.0319 11.28 12.0322 11.28 12.0326C11.28 12.033 11.28 12.0333 11.28 12.0337C11.28 12.034 11.28 12.0343 11.28 12.0346C11.28 12.035 11.28 12.0354 11.28 12.0358C11.28 12.0361 11.28 12.0365 11.28 12.0368C11.28 12.0372 11.28 12.0375 11.28 12.0379C11.28 12.0383 11.28 12.0387 11.28 12.0391C11.28 12.0394 11.28 12.0398 11.28 12.0402C11.28 12.0406 11.28 12.041 11.28 12.0414C11.28 12.0417 11.28 12.0422 11.28 12.0426C11.28 12.043 11.28 12.0434 11.28 12.0438C11.28 12.0442 11.28 12.0446 11.28 12.045C11.28 12.0455 11.28 12.0459 11.28 12.0463C11.28 12.0467 11.28 12.0471 11.28 12.0476C11.28 12.048 11.28 12.0485 11.28 12.0488C11.28 12.0493 11.28 12.0498 11.28 12.0502C11.28 12.0507 11.28 12.0511 11.28 12.0516C11.28 12.052 11.28 12.0525 11.28 12.053C11.28 12.0535 11.28 12.0539 11.28 12.0544C11.28 12.0548 11.28 12.0553 11.28 12.0558C11.28 12.0562 11.28 12.0568 11.28 12.0573C11.28 12.0578 11.28 12.0583 11.28 12.0587C11.28 12.0592 11.28 12.0597 11.28 12.0603C11.28 12.0607 11.28 12.0612 11.28 12.0618C11.28 12.0623 11.28 12.0629 11.28 12.0633C11.28 12.0638 11.28 12.0644 11.28 12.0649C11.28 12.0655 11.28 12.066 11.28 12.0665C11.28 12.0671 11.28 12.0677 11.28 12.0681C11.28 12.0687 11.28 12.0693 11.28 12.0699C11.28 12.0703 11.28 12.0709 11.28 12.0715C11.28 12.0721 11.28 12.0727 11.28 12.0732C11.28 12.0738 11.28 12.0744 11.28 12.075C11.28 12.0755 11.28 12.0762 11.28 12.0768C11.28 12.0774 11.28 12.0779 11.28 12.0785C11.28 12.0792 11.28 12.0798 11.28 12.0803C11.28 12.081 11.28 12.0816 11.28 12.0823C11.28 12.0828 11.28 12.0835 11.28 12.0841C11.28 12.0847 11.28 12.0854 11.28 12.086C11.28 12.0867 11.28 12.0873 11.28 12.088C11.28 12.0886 11.28 12.0893 11.28 12.0899C11.28 12.0906 11.28 12.0913 11.28 12.0919C11.28 12.0926 11.28 12.0933 11.28 12.094C11.28 12.0946 11.28 12.0953 11.28 12.096C11.28 12.0967 11.28 12.0974 11.28 12.0981C11.28 12.0989 11.28 12.0995 11.28 12.1002C11.28 12.101 11.28 12.1016 11.28 12.1024C11.28 12.1031 11.28 12.1039 11.28 12.1045C11.28 12.1053 11.28 12.1061 11.28 12.1067C11.28 12.1075 11.28 12.1083 11.28 12.109C11.28 12.1098 11.28 12.1105 11.28 12.1112C11.28 12.112 11.28 12.1128 11.28 12.1135C11.28 12.1143 11.28 12.1152 11.28 12.1159C11.28 12.1167 11.28 12.1175 11.28 12.1183C11.28 12.1191 11.28 12.1199 11.28 12.1207C11.28 12.1215 11.28 12.1223 11.28 12.1231C11.28 12.1239 11.28 12.1248 11.28 12.1255C11.28 12.1264 11.28 12.1273 11.28 12.128C11.28 12.1289 11.28 12.1298 11.28 12.1306C11.28 12.1314 11.28 12.1323 11.28 12.1331C11.28 12.134 11.28 12.1349 11.28 12.1357C11.28 12.1366 11.28 12.1375 11.28 12.1384C11.28 12.1393 11.28 12.1401 11.28 12.141C11.28 12.142 11.28 12.1428 11.28 12.1437C11.28 12.1447 11.28 12.1455 11.28 12.1465C11.28 12.1473 11.28 12.1483 11.28 12.1493C11.28 12.1501 11.28 12.1511 11.28 12.152C11.28 12.153 11.28 12.1539 11.28 12.1548C11.28 12.1558 11.28 12.1567 11.28 12.1577C11.28 12.1587 11.28 12.1596 11.28 12.1606C11.28 12.1616 11.28 12.1626 11.28 12.1636C11.28 12.1645 11.28 12.1656 11.28 12.1665C11.28 12.1675 11.28 12.1686 11.28 12.1695C11.28 12.1706 11.28 12.1715 11.28 12.1726C11.28 12.1736 11.28 12.1746 11.28 12.1757C11.28 12.1767 11.28 12.1778 11.28 12.1788C11.28 12.1799 11.28 12.1809 11.28 12.182C11.28 12.1831 11.28 12.1841 11.28 12.1852C11.28 12.1862 11.28 12.1873 11.28 12.1883C11.28 12.1895 11.28 12.1905 11.28 12.1917C11.28 12.1927 11.28 12.1938 11.28 12.195C11.28 12.196 11.28 12.1972 11.28 12.1983C11.28 12.1994 11.28 12.2005 11.28 12.2017C11.28 12.2028 11.28 12.204 11.28 12.2051C11.28 12.2063 11.28 12.2074 11.28 12.2086C11.28 12.2097 11.28 12.2109 11.28 12.212C11.28 12.2132 11.28 12.2143 11.28 12.2156C11.28 12.2167 11.28 12.218 11.28 12.2191C11.28 12.2204 11.28 12.2215 11.28 12.2228C11.28 12.2239 11.28 12.2252 11.28 12.2264C11.28 12.2276 11.28 12.2288 11.28 12.2301C11.28 12.2313 11.28 12.2326 11.28 12.2338C11.28 12.2351 11.28 12.2363 11.28 12.2376C11.28 12.2388 11.28 12.2402 11.28 12.2414C11.28 12.2427 11.28 12.244 11.28 12.2453C11.28 12.2466 11.28 12.2479 11.28 12.2492C11.28 12.2504 11.28 12.2518 11.28 12.2531C11.28 12.2544 11.28 12.2557 11.28 12.2571C11.28 12.2584 11.28 12.2598 11.28 12.2611C11.28 12.2624 11.28 12.2638 11.28 12.2651C11.28 12.2665 11.28 12.2679 11.28 12.2693C11.28 12.2706 11.28 12.272 11.28 12.2734C11.28 12.2748 11.28 12.2762 11.28 12.2776C11.28 12.279 11.28 12.2804 11.28 12.2818C11.28 12.2833 11.28 12.2846 11.28 12.2861C11.28 12.2875 11.28 12.2889 11.28 12.2904C11.28 12.2918 11.28 12.2933 11.28 12.2948C11.28 12.2962 11.28 12.2977 11.28 12.2991C11.28 12.3007 11.28 12.3021 11.28 12.3036C11.28 12.3051 11.28 12.3066 11.28 12.308C11.28 12.3096 11.28 12.3111 11.28 12.3127C11.28 12.3141 11.28 12.3156 11.28 12.3172C11.28 12.3187 11.28 12.3202 11.28 12.3218C11.28 12.3233 11.28 12.3249 11.28 12.3265C11.28 12.328 11.28 12.3296 11.28 12.3312C11.28 12.3327 11.28 12.3343 11.28 12.336C11.28 12.3375 11.28 12.3391 11.28 12.3408C11.28 12.3423 11.28 12.3439 11.28 12.3456C11.28 12.3472 11.28 12.3488 11.28 12.3505C11.28 12.3521 11.28 12.3537 11.28 12.3554C11.28 12.3571 11.28 12.3587 11.28 12.3604C11.28 12.3621 11.28 12.3637 11.28 12.3655C11.28 12.3671 11.28 12.3688 11.28 12.3704C11.28 12.3722 11.28 12.3739 11.28 12.3756C11.28 12.3774 11.28 12.3791 11.28 12.3808C11.28 12.3825 11.28 12.3843 11.28 12.386C11.28 12.3877 11.28 12.3895 11.28 12.3913C11.28 12.393 11.28 12.3948 11.28 12.3966C11.28 12.3984 11.28 12.4001 11.28 12.4019C11.28 12.4038 11.28 12.4055 11.28 12.4073C11.28 12.4091 11.28 12.411 11.28 12.4128C11.28 12.4146 11.28 12.4164 11.28 12.4183C11.28 12.4202 11.28 12.422 11.28 12.4238C11.28 12.4257 11.28 12.4276 11.28 12.4295C11.28 12.4313 11.28 12.4332 11.28 12.4351C11.28 12.437 11.28 12.4389 11.28 12.4408C11.28 12.4427 11.28 12.4447 11.28 12.4466C11.28 12.4485 11.28 12.4504 11.28 12.4523C11.28 12.4543 11.28 12.4563 11.28 12.4582C11.28 12.4602 11.28 12.4621 11.28 12.4641C11.28 12.4661 11.28 12.4681 11.28 12.4701C11.28 12.472 11.28 12.474 11.28 12.476C11.28 12.4781 11.28 12.4801 11.28 12.4821C11.28 12.4841 11.28 12.4861 11.28 12.4882C11.28 12.4903 11.28 12.4923 11.28 12.4944C11.28 12.4964 11.28 12.4985 11.28 12.5005C11.28 12.5026 11.28 12.5047 11.28 12.5069C11.28 12.5089 11.28 12.511 11.28 12.5131C11.28 12.5152 11.28 12.5173 11.28 12.5195C11.28 12.5216 11.28 12.5238 11.28 12.5259C11.28 12.5281 11.28 12.5302 11.28 12.5324C11.28 12.5345 11.28 12.5367 11.28 12.5389C11.28 12.541 11.28 12.5432 11.28 12.5455C11.28 12.5477 11.28 12.5499 11.28 12.5521C11.28 12.5543 11.28 12.5565 11.28 12.5588C11.28 12.561 11.28 12.5632 11.28 12.5655C11.28 12.5677 11.28 12.57 11.28 12.5723C11.28 12.5745 11.28 12.5768 11.28 12.5791C11.28 12.5815 11.28 12.5838 11.28 12.5861C11.28 12.5884 11.28 12.5907 11.28 12.593C11.28 12.5953 11.28 12.5977 11.28 12.6C11.28 12.6023 11.28 12.6047 11.28 12.6071C11.28 12.6094 11.28 12.6118 11.28 12.6142C11.28 12.6165 11.28 12.6189 11.28 12.6213C11.28 12.6237 11.28 12.6261 11.28 12.6286C11.28 12.631 11.28 12.6334 11.28 12.6358C11.28 12.6383 11.28 12.6407 11.28 12.6432C11.28 12.6456 11.28 12.6481 11.28 12.6506C11.28 12.6531 11.28 12.6555 11.28 12.658C11.28 12.6605 11.28 12.663 11.28 12.6655C11.28 12.668 11.28 12.6705 11.28 12.673C11.28 12.6756 11.28 12.6781 11.28 12.6807C11.28 12.6832 11.28 12.6858 11.28 12.6884C11.28 12.691 11.28 12.6935 11.28 12.6961C11.28 12.6987 11.28 12.7013 11.28 12.7039C11.28 12.7065 11.28 12.7091 11.28 12.7117C11.28 12.7144 11.28 12.717 11.28 12.7197C11.28 12.7223 11.28 12.725 11.28 12.7277C11.28 12.7303 11.28 12.7329 11.28 12.7356C11.28 12.7383 11.28 12.741 11.28 12.7437C11.28 12.7465 11.28 12.7492 11.28 12.7519C11.28 12.7546 11.28 12.7573 11.28 12.7601C11.28 12.7628 11.28 12.7656 11.28 12.7684C11.28 12.7711 11.28 12.7738 11.28 12.7766C11.28 12.7794 11.28 12.7823 11.28 12.7851C11.28 12.7879 11.28 12.7906 11.28 12.7935C11.28 12.7963 11.28 12.7992 11.28 12.802C11.28 12.8048 11.28 12.8077 11.28 12.8105C11.28 12.8134 11.28 12.8163 11.28 12.8191C11.28 12.822 11.28 12.8249 11.28 12.8279C11.28 12.8308 11.28 12.8336 11.28 12.8366C11.28 12.8395 11.28 12.8425 11.28 12.8455C11.28 12.8483 11.28 12.8513 11.28 12.8543C11.28 12.8573 11.28 12.8602 11.28 12.8632C11.28 12.8662 11.28 12.8692 11.28 12.8722C11.28 12.8752 11.28 12.8782 11.28 12.8813C11.28 12.8842 11.28 12.8873 11.28 12.8904C11.28 12.8935 11.28 12.8965 11.28 12.8996C11.28 12.9026 11.28 12.9057 11.28 12.9088C11.28 12.9119 11.28 12.915 11.28 12.9181C11.28 12.9212 11.28 12.9244 11.28 12.9274C11.28 12.9306 11.28 12.9338 11.28 12.9369C11.28 12.94 11.28 12.9432 11.28 12.9463C11.28 12.9496 11.28 12.9528 11.28 12.9559C11.28 12.9591 11.28 12.9624 11.28 12.9655C11.28 12.9688 11.28 12.972 11.28 12.9752C11.28 12.9785 11.28 12.9818 11.28 12.985C11.28 12.9883 11.28 12.9916 11.28 12.9948C11.28 12.9981 11.28 13.0015 11.28 13.0047C11.28 13.008 11.28 13.0113 11.28 13.0147C11.28 13.018 11.28 13.0213 11.28 13.0247C11.28 13.028 11.28 13.0314 11.28 13.0348C11.28 13.0381 11.28 13.0415 11.28 13.0449C11.28 13.0483 11.28 13.0517 11.28 13.0551C11.28 13.0586 11.28 13.0619 11.28 13.0654C11.28 13.0688 11.28 13.0723 11.28 13.0758C11.28 13.0792 11.28 13.0827 11.28 13.0861C11.28 13.0896 11.28 13.0931 11.28 13.0966C11.28 13.1001 11.28 13.1036 11.28 13.1071C11.28 13.1107 11.28 13.1143 11.28 13.1178C11.28 13.1214 11.28 13.1249 11.28 13.1285C11.28 13.132 11.28 13.1356 11.28 13.1392C11.28 13.1428 11.28 13.1464 11.28 13.1501C11.28 13.1536 11.28 13.1573 11.28 13.1609C11.28 13.1646 11.28 13.1682 11.28 13.1719C11.28 13.1755 11.28 13.1791 11.28 13.1829C11.28 13.1865 11.28 13.1903 11.28 13.1939C11.28 13.1977 11.28 13.2014 11.28 13.2052C11.28 13.2088 11.28 13.2126 11.28 13.2164C11.28 13.2201 11.28 13.2239 11.28 13.2276C11.28 13.2315 11.28 13.2352 11.28 13.2391C11.28 13.2428 11.28 13.2466 11.28 13.2505C11.28 13.2543 11.28 13.2582 11.28 13.262C11.28 13.2658 11.28 13.2697 11.28 13.2735C11.28 13.2775 11.28 13.2813 11.28 13.2852C11.28 13.2891 11.28 13.293 11.28 13.2969C11.28 13.3008 11.28 13.3047 11.28 13.3087C11.28 13.3127 11.28 13.3166 11.28 13.3206C11.28 13.3245 11.28 13.3285 11.28 13.3325C11.28 13.3365 11.28 13.3405 11.28 13.3445C11.28 13.3485 11.28 13.3525 11.28 13.3566C11.28 13.3606 11.28 13.3646 11.28 13.3687C11.28 13.3728 11.28 13.3768 11.28 13.3809C11.28 13.3851 11.28 13.3891 11.28 13.3932C11.28 13.3974 11.28 13.4015 11.28 13.4056C11.28 13.4097 11.28 13.4139 11.28 13.418C11.28 13.4222 11.28 13.4263 11.28 13.4306C11.28 13.4347 11.28 13.4389 11.28 13.4431C11.28 13.4474 11.28 13.4516 11.28 13.4558C11.28 13.46 11.28 13.4643 11.28 13.4685C11.28 13.4728 11.28 13.477 11.28 13.4814C11.28 13.4856 11.28 13.4899 11.28 13.4942C11.28 13.4985 11.28 13.5029 11.28 13.5072C11.28 13.5115 11.28 13.5158 11.28 13.5202C11.28 13.5246 11.28 13.529 11.28 13.5333C11.28 13.5377 11.28 13.5421 11.28 13.5464C11.28 13.5509 11.28 13.5553 11.28 13.5598C11.28 13.5642 11.28 13.5686 11.28 13.573C11.28 13.5775 11.28 13.582 11.28 13.5865C11.28 13.591 11.28 13.5955 11.28 13.6C11.28 13.6044 11.28 13.609 11.28 13.6135C11.28 13.6181 11.28 13.6226 11.28 13.6272C11.28 13.6317 11.28 13.6363 11.28 13.6409C11.28 13.6454 11.28 13.65 11.28 13.6546C11.28 13.6592 11.28 13.6639 11.28 13.6686C11.28 13.6732 11.28 13.6778 11.28 13.6825C11.28 13.6872 11.28 13.6918 11.28 13.6965C11.28 13.7012 11.28 13.7059 11.28 13.7106C11.28 13.7153 11.28 13.72 11.28 13.7248C11.28 13.7295 11.28 13.7342 11.28 13.739C11.28 13.7438 11.28 13.7485 11.28 13.7533C11.28 13.7581 11.28 13.7629 11.28 13.7677C11.28 13.7726 11.28 13.7774 11.28 13.7822C11.28 13.7871 11.28 13.7919 11.28 13.7968C11.28 13.8017 11.28 13.8066 11.28 13.8115C11.28 13.8164 11.28 13.8213 11.28 13.8262C11.28 13.8311 11.28 13.8361 11.28 13.841C11.28 13.846 11.28 13.851 11.28 13.8559C11.28 13.8608 11.28 13.8658 11.28 13.8708C11.28 13.8758 11.28 13.8809 11.28 13.8859C11.28 13.8909 11.28 13.896 11.28 13.9011C11.28 13.9061 11.28 13.9111 11.28 13.9162C11.28 13.9213 11.28 13.9264 11.28 13.9315C11.28 13.9367 11.28 13.9418 11.28 13.9469C11.28 13.952 11.28 13.9572 11.28 13.9623C11.28 13.9675 11.28 13.9727 11.28 13.9779C11.28 13.9831 11.28 13.9883 11.28 13.9935C11.28 13.9987 11.28 14.004 11.28 14.0092C11.28 14.0144 11.28 14.0197 11.28 14.025C11.28 14.0303 11.28 14.0356 11.28 14.0408C11.28 14.0461 11.28 14.0515 11.28 14.0568C11.28 14.0622 11.28 14.0674 11.28 14.0728C11.28 14.0782 11.28 14.0836 11.28 14.0889C11.28 14.0943 11.28 14.0997 11.28 14.1052C11.28 14.1105 11.28 14.1159 11.28 14.1214C11.28 14.1269 11.28 14.1323 11.28 14.1377C11.28 14.1432 11.28 14.1487 11.28 14.1542C11.28 14.1597 11.28 14.1652 11.28 14.1707C11.28 14.1762 11.28 14.1818 11.28 14.1873C11.28 14.1929 11.28 14.1985 11.28 14.204C11.28 14.2096 11.28 14.2152 11.28 14.2208C11.28 14.2264 11.28 14.2321 11.28 14.2376C11.28 14.2433 11.28 14.249 11.28 14.2546C11.28 14.2603 11.28 14.266 11.28 14.2716C11.28 14.2774 11.28 14.2831 11.28 14.2888C11.28 14.2945 11.28 14.3002 11.28 14.306C11.28 14.3118 11.28 14.3175 11.28 14.3233C11.28 14.329 11.28 14.3349 11.28 14.3407C11.28 14.3465 11.28 14.3523 11.28 14.3581C11.28 14.364 11.28 14.3698 11.28 14.3757C11.28 14.3815 11.28 14.3875 11.28 14.3934C11.28 14.3992 11.28 14.4052 11.28 14.4111C11.28 14.417 11.28 14.4229 11.28 14.4289C11.28 14.4348 11.28 14.4408 11.28 14.4468C11.28 14.4528 11.28 14.4587 11.28 14.4648C11.28 14.4708 11.28 14.4768 11.28 14.4828C11.28 14.4889 11.28 14.4949 11.28 14.5011C11.28 14.5071 11.28 14.5132 11.28 14.5193C11.28 14.5254 11.28 14.5315 11.28 14.5376C11.28 14.5438 11.28 14.5499 11.28 14.5561C11.28 14.5622 11.28 14.5684 11.28 14.5746C11.28 14.5807 11.28 14.587 11.28 14.5932C11.28 14.5994 11.28 14.6056 11.28 14.6119C11.28 14.6182 11.28 14.6244 11.28 14.6307C11.28 14.637 11.28 14.6432 11.28 14.6496C11.28 14.6559 11.28 14.6623 11.28 14.6686C11.28 14.6749 11.28 14.6813 11.28 14.6876C11.28 14.6939 11.28 14.7004 11.28 14.7068C11.28 14.7131 11.28 14.7196 11.28 14.726C11.28 14.7324 11.28 14.7389 11.28 14.7453C11.28 14.7518 11.28 14.7583 11.28 14.7648C11.28 14.7712 11.28 14.7777 11.28 14.7843C11.28 14.7908 11.28 14.7973 11.28 14.8039C11.28 14.8105 11.28 14.817 11.28 14.8236C11.28 14.8302 11.28 14.8368 11.28 14.8434C11.28 14.85 11.28 14.8567 11.28 14.8633C11.28 14.8699 11.28 14.8765 11.28 14.8832C11.28 14.8899 11.28 14.8966 11.28 14.9033C11.28 14.91 11.28 14.9167 11.28 14.9235C11.28 14.9302 11.28 14.9369 11.28 14.9437C11.28 14.9504 11.28 14.9573 11.28 14.9641C11.28 14.9709 11.28 14.9777 11.28 14.9845C11.28 14.9913 11.28 14.9982 11.28 15.0051C11.28 15.0119 11.28 15.0188 11.28 15.0257C11.28 15.0325 11.28 15.0394 11.28 15.0464C11.28 15.0534 11.28 15.0603 11.28 15.0672C11.28 15.0742 11.28 15.0811 11.28 15.0881C11.28 15.0951 11.28 15.1021 11.28 15.1091C11.28 15.1161 11.28 15.1231 11.28 15.1303C11.28 15.1373 11.28 15.1444 11.28 15.1515C11.28 15.1585 11.28 15.1656 11.28 15.1727C11.28 15.1799 11.28 15.187 11.28 15.1941C11.28 15.2013 11.28 15.2084 11.28 15.2156C11.28 15.2228 11.28 15.23 11.28 15.2372C11.28 15.2444 11.28 15.2516 11.28 15.2589C11.28 15.2661 11.28 15.2734 11.28 15.2807C11.28 15.2879 11.28 15.2952 11.28 15.3025C11.28 15.3098 11.28 15.3172 11.28 15.3245C11.28 15.3319 11.28 15.3391 11.28 15.3465C11.28 15.3539 11.28 15.3613 11.28 15.3687C11.28 15.3761 11.28 15.3835 11.28 15.391C11.28 15.3984 11.28 15.4059 11.28 15.4134C11.28 15.4207 11.28 15.4282 11.28 15.4358C11.28 15.4433 11.28 15.4508 11.28 15.4584C11.28 15.4659 11.28 15.4735 11.28 15.4809C11.28 15.4885 11.28 15.4961 11.28 15.5037C11.28 15.5114 11.28 15.519 11.28 15.5266C11.28 15.5342 11.28 15.5419 11.28 15.5496C11.28 15.5572 11.28 15.5648 11.28 15.5726C11.28 15.5803 11.28 15.588 11.28 15.5958C11.28 15.6034 11.28 15.6112 11.28 15.619C11.28 15.6268 11.28 15.6345 11.28 15.6423C11.28 15.6501 11.28 15.658 11.28 15.6657C11.28 15.6736 11.28 15.6815 11.28 15.6894C11.28 15.6972 11.28 15.7051 11.28 15.713C11.28 15.7208 11.28 15.7288 11.28 15.7367C11.28 15.7447 11.28 15.7526 11.28 15.7606C11.28 15.7686 11.28 15.7765 11.28 15.7845C11.28 15.7926 11.28 15.8005 11.28 15.8086C11.28 15.8167 11.28 15.8247 11.28 15.8328C11.28 15.8408 11.28 15.8489 11.28 15.857C11.28 15.8651 11.28 15.8732 11.28 15.8814C11.28 15.8895 11.28 15.8977 11.28 15.9058C11.28 15.914 11.28 15.9222 11.28 15.9304C11.28 15.9386 11.28 15.9468 11.28 15.9551C11.28 15.9633 11.28 15.9716 11.28 15.9799C11.28 15.9881 11.28 15.9964 11.28 16.0047C11.28 16.013 11.28 16.0213 11.28 16.0297C11.28 16.038 11.28 16.0464 11.28 16.0547C11.28 16.0632 11.28 16.0715 11.28 16.08C11.28 16.0883 11.28 16.0968 11.28 16.1052C11.28 16.1137 11.28 16.1221 11.28 16.1307C11.28 16.1391 11.28 16.1476 11.28 16.1561C11.28 16.1647 11.28 16.1732 11.28 16.1817C11.28 16.1903 11.28 16.1988 11.28 16.2075C11.28 16.216 11.28 16.2247 11.28 16.2333C11.28 16.2418 11.28 16.2505 11.28 16.2592C11.28 16.2679 11.28 16.2765 11.28 16.2852C11.28 16.2939 11.28 16.3026 11.28 16.3113C11.28 16.3201 11.28 16.3288 11.28 16.3375C11.28 16.3463 11.28 16.3551 11.28 16.3639C11.28 16.3727 11.28 16.3815 11.28 16.3903C11.28 16.3992 11.28 16.408 11.28 16.4169C11.28 16.4258 11.28 16.4347 11.28 16.4435C11.28 16.4525 11.28 16.4614 11.28 16.4703C11.28 16.4792 11.28 16.4883 11.28 16.4972C11.28 16.5062 11.28 16.5151 11.28 16.5242C11.28 16.5332 11.28 16.5422 11.28 16.5512C11.28 16.5604 11.28 16.5694 11.28 16.5785C11.28 16.5875 11.28 16.5967 11.28 16.6058C11.28 16.6149 11.28 16.624 11.28 16.6332C11.28 16.6423 11.28 16.6516 11.28 16.6607C11.28 16.6699 11.28 16.6791 11.28 16.6883C11.28 16.6975 11.28 16.7069 11.28 16.7161C11.28 16.7254 11.28 16.7346 11.28 16.7439C11.28 16.7532 11.28 16.7625 11.28 16.7719C11.28 16.7813 11.28 16.7906 11.28 16.8H12.72C12.72 16.7906 12.72 16.7813 12.72 16.7719C12.72 16.7625 12.72 16.7532 12.72 16.7439C12.72 16.7346 12.72 16.7254 12.72 16.7161C12.72 16.7069 12.72 16.6975 12.72 16.6883C12.72 16.6791 12.72 16.6699 12.72 16.6607C12.72 16.6516 12.72 16.6423 12.72 16.6332C12.72 16.624 12.72 16.6149 12.72 16.6058C12.72 16.5967 12.72 16.5875 12.72 16.5785C12.72 16.5694 12.72 16.5604 12.72 16.5512C12.72 16.5422 12.72 16.5332 12.72 16.5242C12.72 16.5151 12.72 16.5062 12.72 16.4972C12.72 16.4883 12.72 16.4792 12.72 16.4703C12.72 16.4614 12.72 16.4525 12.72 16.4435C12.72 16.4347 12.72 16.4258 12.72 16.4169C12.72 16.408 12.72 16.3992 12.72 16.3903C12.72 16.3815 12.72 16.3727 12.72 16.3639C12.72 16.3551 12.72 16.3463 12.72 16.3375C12.72 16.3288 12.72 16.3201 12.72 16.3113C12.72 16.3026 12.72 16.2939 12.72 16.2852C12.72 16.2765 12.72 16.2679 12.72 16.2592C12.72 16.2505 12.72 16.2418 12.72 16.2333C12.72 16.2247 12.72 16.216 12.72 16.2075C12.72 16.1988 12.72 16.1903 12.72 16.1817C12.72 16.1732 12.72 16.1647 12.72 16.1561C12.72 16.1476 12.72 16.1391 12.72 16.1307C12.72 16.1221 12.72 16.1137 12.72 16.1052C12.72 16.0968 12.72 16.0883 12.72 16.08C12.72 16.0715 12.72 16.0632 12.72 16.0547C12.72 16.0464 12.72 16.038 12.72 16.0297C12.72 16.0213 12.72 16.013 12.72 16.0047C12.72 15.9964 12.72 15.9881 12.72 15.9799C12.72 15.9716 12.72 15.9633 12.72 15.9551C12.72 15.9468 12.72 15.9386 12.72 15.9304C12.72 15.9222 12.72 15.914 12.72 15.9058C12.72 15.8977 12.72 15.8895 12.72 15.8814C12.72 15.8732 12.72 15.8651 12.72 15.857C12.72 15.8489 12.72 15.8408 12.72 15.8328C12.72 15.8247 12.72 15.8167 12.72 15.8086C12.72 15.8005 12.72 15.7926 12.72 15.7845C12.72 15.7765 12.72 15.7686 12.72 15.7606C12.72 15.7526 12.72 15.7447 12.72 15.7367C12.72 15.7288 12.72 15.7208 12.72 15.713C12.72 15.7051 12.72 15.6972 12.72 15.6894C12.72 15.6815 12.72 15.6736 12.72 15.6657C12.72 15.658 12.72 15.6501 12.72 15.6423C12.72 15.6345 12.72 15.6268 12.72 15.619C12.72 15.6112 12.72 15.6034 12.72 15.5958C12.72 15.588 12.72 15.5803 12.72 15.5726C12.72 15.5648 12.72 15.5572 12.72 15.5496C12.72 15.5419 12.72 15.5342 12.72 15.5266C12.72 15.519 12.72 15.5114 12.72 15.5037C12.72 15.4961 12.72 15.4885 12.72 15.4809C12.72 15.4735 12.72 15.4659 12.72 15.4584C12.72 15.4508 12.72 15.4433 12.72 15.4358C12.72 15.4282 12.72 15.4207 12.72 15.4134C12.72 15.4059 12.72 15.3984 12.72 15.391C12.72 15.3835 12.72 15.3761 12.72 15.3687C12.72 15.3613 12.72 15.3539 12.72 15.3465C12.72 15.3391 12.72 15.3319 12.72 15.3245C12.72 15.3172 12.72 15.3098 12.72 15.3025C12.72 15.2952 12.72 15.2879 12.72 15.2807C12.72 15.2734 12.72 15.2661 12.72 15.2589C12.72 15.2516 12.72 15.2444 12.72 15.2372C12.72 15.23 12.72 15.2228 12.72 15.2156C12.72 15.2084 12.72 15.2013 12.72 15.1941C12.72 15.187 12.72 15.1799 12.72 15.1727C12.72 15.1656 12.72 15.1585 12.72 15.1515C12.72 15.1444 12.72 15.1373 12.72 15.1303C12.72 15.1231 12.72 15.1161 12.72 15.1091C12.72 15.1021 12.72 15.0951 12.72 15.0881C12.72 15.0811 12.72 15.0742 12.72 15.0672C12.72 15.0603 12.72 15.0534 12.72 15.0464C12.72 15.0394 12.72 15.0325 12.72 15.0257C12.72 15.0188 12.72 15.0119 12.72 15.0051C12.72 14.9982 12.72 14.9913 12.72 14.9845C12.72 14.9777 12.72 14.9709 12.72 14.9641C12.72 14.9573 12.72 14.9504 12.72 14.9437C12.72 14.9369 12.72 14.9302 12.72 14.9235C12.72 14.9167 12.72 14.91 12.72 14.9033C12.72 14.8966 12.72 14.8899 12.72 14.8832C12.72 14.8765 12.72 14.8699 12.72 14.8633C12.72 14.8567 12.72 14.85 12.72 14.8434C12.72 14.8368 12.72 14.8302 12.72 14.8236C12.72 14.817 12.72 14.8105 12.72 14.8039C12.72 14.7973 12.72 14.7908 12.72 14.7843C12.72 14.7777 12.72 14.7712 12.72 14.7648C12.72 14.7583 12.72 14.7518 12.72 14.7453C12.72 14.7389 12.72 14.7324 12.72 14.726C12.72 14.7196 12.72 14.7131 12.72 14.7068C12.72 14.7004 12.72 14.6939 12.72 14.6876C12.72 14.6813 12.72 14.6749 12.72 14.6686C12.72 14.6623 12.72 14.6559 12.72 14.6496C12.72 14.6432 12.72 14.637 12.72 14.6307C12.72 14.6244 12.72 14.6182 12.72 14.6119C12.72 14.6056 12.72 14.5994 12.72 14.5932C12.72 14.587 12.72 14.5807 12.72 14.5746C12.72 14.5684 12.72 14.5622 12.72 14.5561C12.72 14.5499 12.72 14.5438 12.72 14.5376C12.72 14.5315 12.72 14.5254 12.72 14.5193C12.72 14.5132 12.72 14.5071 12.72 14.5011C12.72 14.4949 12.72 14.4889 12.72 14.4828C12.72 14.4768 12.72 14.4708 12.72 14.4648C12.72 14.4587 12.72 14.4528 12.72 14.4468C12.72 14.4408 12.72 14.4348 12.72 14.4289C12.72 14.4229 12.72 14.417 12.72 14.4111C12.72 14.4052 12.72 14.3992 12.72 14.3934C12.72 14.3875 12.72 14.3815 12.72 14.3757C12.72 14.3698 12.72 14.364 12.72 14.3581C12.72 14.3523 12.72 14.3465 12.72 14.3407C12.72 14.3349 12.72 14.329 12.72 14.3233C12.72 14.3175 12.72 14.3118 12.72 14.306C12.72 14.3002 12.72 14.2945 12.72 14.2888C12.72 14.2831 12.72 14.2774 12.72 14.2716C12.72 14.266 12.72 14.2603 12.72 14.2546C12.72 14.249 12.72 14.2433 12.72 14.2376C12.72 14.2321 12.72 14.2264 12.72 14.2208C12.72 14.2152 12.72 14.2096 12.72 14.204C12.72 14.1985 12.72 14.1929 12.72 14.1873C12.72 14.1818 12.72 14.1762 12.72 14.1707C12.72 14.1652 12.72 14.1597 12.72 14.1542C12.72 14.1487 12.72 14.1432 12.72 14.1377C12.72 14.1323 12.72 14.1269 12.72 14.1214C12.72 14.1159 12.72 14.1105 12.72 14.1052C12.72 14.0997 12.72 14.0943 12.72 14.0889C12.72 14.0836 12.72 14.0782 12.72 14.0728C12.72 14.0674 12.72 14.0622 12.72 14.0568C12.72 14.0515 12.72 14.0461 12.72 14.0408C12.72 14.0356 12.72 14.0303 12.72 14.025C12.72 14.0197 12.72 14.0144 12.72 14.0092C12.72 14.004 12.72 13.9987 12.72 13.9935C12.72 13.9883 12.72 13.9831 12.72 13.9779C12.72 13.9727 12.72 13.9675 12.72 13.9623C12.72 13.9572 12.72 13.952 12.72 13.9469C12.72 13.9418 12.72 13.9367 12.72 13.9315C12.72 13.9264 12.72 13.9213 12.72 13.9162C12.72 13.9111 12.72 13.9061 12.72 13.9011C12.72 13.896 12.72 13.8909 12.72 13.8859C12.72 13.8809 12.72 13.8758 12.72 13.8708C12.72 13.8658 12.72 13.8608 12.72 13.8559C12.72 13.851 12.72 13.846 12.72 13.841C12.72 13.8361 12.72 13.8311 12.72 13.8262C12.72 13.8213 12.72 13.8164 12.72 13.8115C12.72 13.8066 12.72 13.8017 12.72 13.7968C12.72 13.7919 12.72 13.7871 12.72 13.7822C12.72 13.7774 12.72 13.7726 12.72 13.7677C12.72 13.7629 12.72 13.7581 12.72 13.7533C12.72 13.7485 12.72 13.7438 12.72 13.739C12.72 13.7342 12.72 13.7295 12.72 13.7248C12.72 13.72 12.72 13.7153 12.72 13.7106C12.72 13.7059 12.72 13.7012 12.72 13.6965C12.72 13.6918 12.72 13.6872 12.72 13.6825C12.72 13.6778 12.72 13.6732 12.72 13.6686C12.72 13.6639 12.72 13.6592 12.72 13.6546C12.72 13.65 12.72 13.6454 12.72 13.6409C12.72 13.6363 12.72 13.6317 12.72 13.6272C12.72 13.6226 12.72 13.6181 12.72 13.6135C12.72 13.609 12.72 13.6044 12.72 13.6C12.72 13.5955 12.72 13.591 12.72 13.5865C12.72 13.582 12.72 13.5775 12.72 13.573C12.72 13.5686 12.72 13.5642 12.72 13.5598C12.72 13.5553 12.72 13.5509 12.72 13.5464C12.72 13.5421 12.72 13.5377 12.72 13.5333C12.72 13.529 12.72 13.5246 12.72 13.5202C12.72 13.5158 12.72 13.5115 12.72 13.5072C12.72 13.5029 12.72 13.4985 12.72 13.4942C12.72 13.4899 12.72 13.4856 12.72 13.4814C12.72 13.477 12.72 13.4728 12.72 13.4685C12.72 13.4643 12.72 13.46 12.72 13.4558C12.72 13.4516 12.72 13.4474 12.72 13.4431C12.72 13.4389 12.72 13.4347 12.72 13.4306C12.72 13.4263 12.72 13.4222 12.72 13.418C12.72 13.4139 12.72 13.4097 12.72 13.4056C12.72 13.4015 12.72 13.3974 12.72 13.3932C12.72 13.3891 12.72 13.3851 12.72 13.3809C12.72 13.3768 12.72 13.3728 12.72 13.3687C12.72 13.3646 12.72 13.3606 12.72 13.3566C12.72 13.3525 12.72 13.3485 12.72 13.3445C12.72 13.3405 12.72 13.3365 12.72 13.3325C12.72 13.3285 12.72 13.3245 12.72 13.3206C12.72 13.3166 12.72 13.3127 12.72 13.3087C12.72 13.3047 12.72 13.3008 12.72 13.2969C12.72 13.293 12.72 13.2891 12.72 13.2852C12.72 13.2813 12.72 13.2775 12.72 13.2735C12.72 13.2697 12.72 13.2658 12.72 13.262C12.72 13.2582 12.72 13.2543 12.72 13.2505C12.72 13.2466 12.72 13.2428 12.72 13.2391C12.72 13.2352 12.72 13.2315 12.72 13.2276C12.72 13.2239 12.72 13.2201 12.72 13.2164C12.72 13.2126 12.72 13.2088 12.72 13.2052C12.72 13.2014 12.72 13.1977 12.72 13.1939C12.72 13.1903 12.72 13.1865 12.72 13.1829C12.72 13.1791 12.72 13.1755 12.72 13.1719C12.72 13.1682 12.72 13.1646 12.72 13.1609C12.72 13.1573 12.72 13.1536 12.72 13.1501C12.72 13.1464 12.72 13.1428 12.72 13.1392C12.72 13.1356 12.72 13.132 12.72 13.1285C12.72 13.1249 12.72 13.1214 12.72 13.1178C12.72 13.1143 12.72 13.1107 12.72 13.1071C12.72 13.1036 12.72 13.1001 12.72 13.0966C12.72 13.0931 12.72 13.0896 12.72 13.0861C12.72 13.0827 12.72 13.0792 12.72 13.0758C12.72 13.0723 12.72 13.0688 12.72 13.0654C12.72 13.0619 12.72 13.0586 12.72 13.0551C12.72 13.0517 12.72 13.0483 12.72 13.0449C12.72 13.0415 12.72 13.0381 12.72 13.0348C12.72 13.0314 12.72 13.028 12.72 13.0247C12.72 13.0213 12.72 13.018 12.72 13.0147C12.72 13.0113 12.72 13.008 12.72 13.0047C12.72 13.0015 12.72 12.9981 12.72 12.9948C12.72 12.9916 12.72 12.9883 12.72 12.985C12.72 12.9818 12.72 12.9785 12.72 12.9752C12.72 12.972 12.72 12.9688 12.72 12.9655C12.72 12.9624 12.72 12.9591 12.72 12.9559C12.72 12.9528 12.72 12.9496 12.72 12.9463C12.72 12.9432 12.72 12.94 12.72 12.9369C12.72 12.9338 12.72 12.9306 12.72 12.9274C12.72 12.9244 12.72 12.9212 12.72 12.9181C12.72 12.915 12.72 12.9119 12.72 12.9088C12.72 12.9057 12.72 12.9026 12.72 12.8996C12.72 12.8965 12.72 12.8935 12.72 12.8904C12.72 12.8873 12.72 12.8842 12.72 12.8813C12.72 12.8782 12.72 12.8752 12.72 12.8722C12.72 12.8692 12.72 12.8662 12.72 12.8632C12.72 12.8602 12.72 12.8573 12.72 12.8543C12.72 12.8513 12.72 12.8483 12.72 12.8455C12.72 12.8425 12.72 12.8395 12.72 12.8366C12.72 12.8336 12.72 12.8308 12.72 12.8279C12.72 12.8249 12.72 12.822 12.72 12.8191C12.72 12.8163 12.72 12.8134 12.72 12.8105C12.72 12.8077 12.72 12.8048 12.72 12.802C12.72 12.7992 12.72 12.7963 12.72 12.7935C12.72 12.7906 12.72 12.7879 12.72 12.7851C12.72 12.7823 12.72 12.7794 12.72 12.7766C12.72 12.7738 12.72 12.7711 12.72 12.7684C12.72 12.7656 12.72 12.7628 12.72 12.7601C12.72 12.7573 12.72 12.7546 12.72 12.7519C12.72 12.7492 12.72 12.7465 12.72 12.7437C12.72 12.741 12.72 12.7383 12.72 12.7356C12.72 12.7329 12.72 12.7303 12.72 12.7277C12.72 12.725 12.72 12.7223 12.72 12.7197C12.72 12.717 12.72 12.7144 12.72 12.7117C12.72 12.7091 12.72 12.7065 12.72 12.7039C12.72 12.7013 12.72 12.6987 12.72 12.6961C12.72 12.6935 12.72 12.691 12.72 12.6884C12.72 12.6858 12.72 12.6832 12.72 12.6807C12.72 12.6781 12.72 12.6756 12.72 12.673C12.72 12.6705 12.72 12.668 12.72 12.6655C12.72 12.663 12.72 12.6605 12.72 12.658C12.72 12.6555 12.72 12.6531 12.72 12.6506C12.72 12.6481 12.72 12.6456 12.72 12.6432C12.72 12.6407 12.72 12.6383 12.72 12.6358C12.72 12.6334 12.72 12.631 12.72 12.6286C12.72 12.6261 12.72 12.6237 12.72 12.6213C12.72 12.6189 12.72 12.6165 12.72 12.6142C12.72 12.6118 12.72 12.6094 12.72 12.6071C12.72 12.6047 12.72 12.6023 12.72 12.6C12.72 12.5977 12.72 12.5953 12.72 12.593C12.72 12.5907 12.72 12.5884 12.72 12.5861C12.72 12.5838 12.72 12.5815 12.72 12.5791C12.72 12.5768 12.72 12.5745 12.72 12.5723C12.72 12.57 12.72 12.5677 12.72 12.5655C12.72 12.5632 12.72 12.561 12.72 12.5588C12.72 12.5565 12.72 12.5543 12.72 12.5521C12.72 12.5499 12.72 12.5477 12.72 12.5455C12.72 12.5432 12.72 12.541 12.72 12.5389C12.72 12.5367 12.72 12.5345 12.72 12.5324C12.72 12.5302 12.72 12.5281 12.72 12.5259C12.72 12.5238 12.72 12.5216 12.72 12.5195C12.72 12.5173 12.72 12.5152 12.72 12.5131C12.72 12.511 12.72 12.5089 12.72 12.5069C12.72 12.5047 12.72 12.5026 12.72 12.5005C12.72 12.4985 12.72 12.4964 12.72 12.4944C12.72 12.4923 12.72 12.4903 12.72 12.4882C12.72 12.4861 12.72 12.4841 12.72 12.4821C12.72 12.4801 12.72 12.4781 12.72 12.476C12.72 12.474 12.72 12.472 12.72 12.4701C12.72 12.4681 12.72 12.4661 12.72 12.4641C12.72 12.4621 12.72 12.4602 12.72 12.4582C12.72 12.4563 12.72 12.4543 12.72 12.4523C12.72 12.4504 12.72 12.4485 12.72 12.4466C12.72 12.4447 12.72 12.4427 12.72 12.4408C12.72 12.4389 12.72 12.437 12.72 12.4351C12.72 12.4332 12.72 12.4313 12.72 12.4295C12.72 12.4276 12.72 12.4257 12.72 12.4238C12.72 12.422 12.72 12.4202 12.72 12.4183C12.72 12.4164 12.72 12.4146 12.72 12.4128C12.72 12.411 12.72 12.4091 12.72 12.4073C12.72 12.4055 12.72 12.4038 12.72 12.4019C12.72 12.4001 12.72 12.3984 12.72 12.3966C12.72 12.3948 12.72 12.393 12.72 12.3913C12.72 12.3895 12.72 12.3877 12.72 12.386C12.72 12.3843 12.72 12.3825 12.72 12.3808C12.72 12.3791 12.72 12.3774 12.72 12.3756C12.72 12.3739 12.72 12.3722 12.72 12.3704C12.72 12.3688 12.72 12.3671 12.72 12.3655C12.72 12.3637 12.72 12.3621 12.72 12.3604C12.72 12.3587 12.72 12.3571 12.72 12.3554C12.72 12.3537 12.72 12.3521 12.72 12.3505C12.72 12.3488 12.72 12.3472 12.72 12.3456C12.72 12.3439 12.72 12.3423 12.72 12.3408C12.72 12.3391 12.72 12.3375 12.72 12.336C12.72 12.3343 12.72 12.3327 12.72 12.3312C12.72 12.3296 12.72 12.328 12.72 12.3265C12.72 12.3249 12.72 12.3233 12.72 12.3218C12.72 12.3202 12.72 12.3187 12.72 12.3172C12.72 12.3156 12.72 12.3141 12.72 12.3127C12.72 12.3111 12.72 12.3096 12.72 12.308C12.72 12.3066 12.72 12.3051 12.72 12.3036C12.72 12.3021 12.72 12.3007 12.72 12.2991C12.72 12.2977 12.72 12.2962 12.72 12.2948C12.72 12.2933 12.72 12.2918 12.72 12.2904C12.72 12.2889 12.72 12.2875 12.72 12.2861C12.72 12.2846 12.72 12.2833 12.72 12.2818C12.72 12.2804 12.72 12.279 12.72 12.2776C12.72 12.2762 12.72 12.2748 12.72 12.2734C12.72 12.272 12.72 12.2706 12.72 12.2693C12.72 12.2679 12.72 12.2665 12.72 12.2651C12.72 12.2638 12.72 12.2624 12.72 12.2611C12.72 12.2598 12.72 12.2584 12.72 12.2571C12.72 12.2557 12.72 12.2544 12.72 12.2531C12.72 12.2518 12.72 12.2504 12.72 12.2492C12.72 12.2479 12.72 12.2466 12.72 12.2453C12.72 12.244 12.72 12.2427 12.72 12.2414C12.72 12.2402 12.72 12.2388 12.72 12.2376C12.72 12.2363 12.72 12.2351 12.72 12.2338C12.72 12.2326 12.72 12.2313 12.72 12.2301C12.72 12.2288 12.72 12.2276 12.72 12.2264C12.72 12.2252 12.72 12.2239 12.72 12.2228C12.72 12.2215 12.72 12.2204 12.72 12.2191C12.72 12.218 12.72 12.2167 12.72 12.2156C12.72 12.2143 12.72 12.2132 12.72 12.212C12.72 12.2109 12.72 12.2097 12.72 12.2086C12.72 12.2074 12.72 12.2063 12.72 12.2051C12.72 12.204 12.72 12.2028 12.72 12.2017C12.72 12.2005 12.72 12.1994 12.72 12.1983C12.72 12.1972 12.72 12.196 12.72 12.195C12.72 12.1938 12.72 12.1927 12.72 12.1917C12.72 12.1905 12.72 12.1895 12.72 12.1883C12.72 12.1873 12.72 12.1862 12.72 12.1852C12.72 12.1841 12.72 12.1831 12.72 12.182C12.72 12.1809 12.72 12.1799 12.72 12.1788C12.72 12.1778 12.72 12.1767 12.72 12.1757C12.72 12.1746 12.72 12.1736 12.72 12.1726C12.72 12.1715 12.72 12.1706 12.72 12.1695C12.72 12.1686 12.72 12.1675 12.72 12.1665C12.72 12.1656 12.72 12.1645 12.72 12.1636C12.72 12.1626 12.72 12.1616 12.72 12.1606C12.72 12.1596 12.72 12.1587 12.72 12.1577C12.72 12.1567 12.72 12.1558 12.72 12.1548C12.72 12.1539 12.72 12.153 12.72 12.152C12.72 12.1511 12.72 12.1501 12.72 12.1493C12.72 12.1483 12.72 12.1473 12.72 12.1465C12.72 12.1455 12.72 12.1447 12.72 12.1437C12.72 12.1428 12.72 12.142 12.72 12.141C12.72 12.1401 12.72 12.1393 12.72 12.1384C12.72 12.1375 12.72 12.1366 12.72 12.1357C12.72 12.1349 12.72 12.134 12.72 12.1331C12.72 12.1323 12.72 12.1314 12.72 12.1306C12.72 12.1298 12.72 12.1289 12.72 12.128C12.72 12.1273 12.72 12.1264 12.72 12.1255C12.72 12.1248 12.72 12.1239 12.72 12.1231C12.72 12.1223 12.72 12.1215 12.72 12.1207C12.72 12.1199 12.72 12.1191 12.72 12.1183C12.72 12.1175 12.72 12.1167 12.72 12.1159C12.72 12.1152 12.72 12.1143 12.72 12.1135C12.72 12.1128 12.72 12.112 12.72 12.1112C12.72 12.1105 12.72 12.1098 12.72 12.109C12.72 12.1083 12.72 12.1075 12.72 12.1067C12.72 12.1061 12.72 12.1053 12.72 12.1045C12.72 12.1039 12.72 12.1031 12.72 12.1024C12.72 12.1016 12.72 12.101 12.72 12.1002C12.72 12.0995 12.72 12.0989 12.72 12.0981C12.72 12.0974 12.72 12.0967 12.72 12.096C12.72 12.0953 12.72 12.0946 12.72 12.094C12.72 12.0933 12.72 12.0926 12.72 12.0919C12.72 12.0913 12.72 12.0906 12.72 12.0899C12.72 12.0893 12.72 12.0886 12.72 12.088C12.72 12.0873 12.72 12.0867 12.72 12.086C12.72 12.0854 12.72 12.0847 12.72 12.0841C12.72 12.0835 12.72 12.0828 12.72 12.0823C12.72 12.0816 12.72 12.081 12.72 12.0803C12.72 12.0798 12.72 12.0792 12.72 12.0785C12.72 12.0779 12.72 12.0774 12.72 12.0768C12.72 12.0762 12.72 12.0755 12.72 12.075C12.72 12.0744 12.72 12.0738 12.72 12.0732C12.72 12.0727 12.72 12.0721 12.72 12.0715C12.72 12.0709 12.72 12.0703 12.72 12.0699C12.72 12.0693 12.72 12.0687 12.72 12.0681C12.72 12.0677 12.72 12.0671 12.72 12.0665C12.72 12.066 12.72 12.0655 12.72 12.0649C12.72 12.0644 12.72 12.0638 12.72 12.0633C12.72 12.0629 12.72 12.0623 12.72 12.0618C12.72 12.0612 12.72 12.0607 12.72 12.0603C12.72 12.0597 12.72 12.0592 12.72 12.0587C12.72 12.0583 12.72 12.0578 12.72 12.0573C12.72 12.0568 12.72 12.0562 12.72 12.0558C12.72 12.0553 12.72 12.0548 12.72 12.0544C12.72 12.0539 12.72 12.0535 12.72 12.053C12.72 12.0525 12.72 12.052 12.72 12.0516C12.72 12.0511 12.72 12.0507 12.72 12.0502C12.72 12.0498 12.72 12.0493 12.72 12.0488C12.72 12.0485 12.72 12.048 12.72 12.0476C12.72 12.0471 12.72 12.0467 12.72 12.0463C12.72 12.0459 12.72 12.0455 12.72 12.045C12.72 12.0446 12.72 12.0442 12.72 12.0438C12.72 12.0434 12.72 12.043 12.72 12.0426C12.72 12.0422 12.72 12.0417 12.72 12.0414C12.72 12.041 12.72 12.0406 12.72 12.0402C12.72 12.0398 12.72 12.0394 12.72 12.0391C12.72 12.0387 12.72 12.0383 12.72 12.0379C12.72 12.0375 12.72 12.0372 12.72 12.0368C12.72 12.0365 12.72 12.0361 12.72 12.0358C12.72 12.0354 12.72 12.035 12.72 12.0346C12.72 12.0343 12.72 12.034 12.72 12.0337C12.72 12.0333 12.72 12.033 12.72 12.0326C12.72 12.0322 12.72 12.0319 12.72 12.0317C12.72 12.0313 12.72 12.031 12.72 12.0306C12.72 12.0303 12.72 12.03 12.72 12.0296C12.72 12.0294 12.72 12.0299 12.72 12.0296C12.72 12.0293 12.72 12.0281 12.72 12.0278C12.72 12.0275 12.72 12.0281 12.72 12.0278C12.72 12.0275 12.72 12.0264 12.72 12.0261C12.72 12.0258 12.72 12.0264 12.72 12.0261C12.72 12.0258 12.72 12.0247 12.72 12.0244C12.72 12.0241 12.72 12.0247 12.72 12.0244C12.72 12.0241 12.72 12.023 12.72 12.0227C12.72 12.0224 12.72 12.0229 12.72 12.0227C12.72 12.0224 12.72 12.0214 12.72 12.0212C12.72 12.0209 12.72 12.0215 12.72 12.0212C12.72 12.0209 12.72 12.0199 12.72 12.0197C12.72 12.0195 12.72 12.0199 12.72 12.0197C12.72 12.0195 12.72 12.0185 12.72 12.0183C12.72 12.018 12.72 12.0185 12.72 12.0183C12.72 12.018 12.72 12.0172 12.72 12.017C12.72 12.0168 12.72 12.0172 12.72 12.017C12.72 12.0168 12.72 12.0159 12.72 12.0157C12.72 12.0154 12.72 12.0159 12.72 12.0157C12.72 12.0155 12.72 12.0147 12.72 12.0145C12.72 12.0143 12.72 12.0147 12.72 12.0145C12.72 12.0143 12.72 12.0135 12.72 12.0133C12.72 12.0131 12.72 12.0135 12.72 12.0133C12.72 12.0131 12.72 12.0125 12.72 12.0123C12.72 12.0121 12.72 12.0125 12.72 12.0123C12.72 12.0122 12.72 12.0114 12.72 12.0112C12.72 12.011 12.72 12.01 12.72 12.0098C12.72 12.0097 12.72 12.0086 12.72 12.0085C12.72 12.0084 12.72 12.0075 12.72 12.0074C12.72 12.0073 12.72 12.0064 12.72 12.0062C12.72 12.0061 12.72 12.0055 12.72 12.0053C12.72 12.0052 12.72 12.0043 12.72 12.0042C12.72 12.0041 12.72 12.0043 12.72 12.0042C12.72 12.0041 12.72 12.0033 12.72 12.0032C12.72 12.0031 12.72 12.0022 12.72 12.0021C12.72 12.0021 12.72 12.0012 12.72 12.0011C12.72 12.001 12.72 12 12.72 12H12ZM12.72 12V7.19998H11.28V12H12.72Z" fill="white"/>
</svg>
