<svg width="25" height="24" viewBox="0 0 25 24" fill="none" xmlns="http://www.w3.org/2000/svg">
<path d="M22.4299 6.76001L19.0599 20.29C18.8199 21.3 17.9199 22 16.8799 22H3.73989C2.22989 22 1.1499 20.5199 1.5999 19.0699L5.80989 5.55005C6.09989 4.61005 6.96991 3.95996 7.94991 3.95996H20.2499C21.1999 3.95996 21.9899 4.53997 22.3199 5.33997C22.5099 5.76997 22.5499 6.26001 22.4299 6.76001Z" stroke="#292D32" stroke-width="1.5" stroke-miterlimit="10"/>
<path d="M16.5 22H21.28C22.57 22 23.58 20.91 23.49 19.62L22.5 6" stroke="#292D32" stroke-width="1.5" stroke-miterlimit="10" stroke-linecap="round" stroke-linejoin="round"/>
<path d="M10.1799 6.38L11.2199 2.06006" stroke="#292D32" stroke-width="1.5" stroke-miterlimit="10" stroke-linecap="round" stroke-linejoin="round"/>
<path d="M16.8799 6.38977L17.8199 2.0498" stroke="#292D32" stroke-width="1.5" stroke-miterlimit="10" stroke-linecap="round" stroke-linejoin="round"/>
<path d="M8.19995 12H16.2" stroke="#292D32" stroke-width="1.5" stroke-miterlimit="10" stroke-linecap="round" stroke-linejoin="round"/>
<path d="M7.19995 16H15.2" stroke="#292D32" stroke-width="1.5" stroke-miterlimit="10" stroke-linecap="round" stroke-linejoin="round"/>
</svg>
